<svg xmlns="http://www.w3.org/2000/svg" viewBox="0 0 256 256" width="256" height="256">
  <defs>
    <linearGradient id="bg" x1="0" y1="0" x2="1" y2="1">
      <stop offset="0%" stop-color="#1a1a2e"/>
      <stop offset="100%" stop-color="#16213e"/>
    </linearGradient>
  </defs>
  <!-- Dark rounded background -->
  <rect width="256" height="256" rx="48" fill="url(#bg)"/>
  <!-- Rounded box -->
  <rect x="40" y="40" width="176" height="176" rx="28" fill="none" stroke="#c9a84c" stroke-width="8"/>
  <!-- Letter R (outlined from Noto Serif Bold) -->
  <path fill="#e2c06d" d="M82.1 172.0V164.6H86.0Q89.4 164.6 92.2 163.2Q95.1 161.8 95.1 156.2V88.0Q95.1 84.2 93.7 82.4Q92.3 80.6 90.2 80.0Q88.1 79.5 86.0 79.5H82.1V72.0H127.3Q148.4 72.0 157.6 79.1Q166.8 86.2 166.8 98.8Q166.8 106.5 163.9 111.7Q161.0 116.8 156.4 119.8Q151.8 122.9 146.6 124.4L164.0 152.8Q167.6 159.0 170.6 161.8Q173.6 164.6 177.4 164.6H178.3V172.0H173.6Q165.2 172.0 159.4 171.0Q153.6 170.0 149.7 167.4Q145.8 164.7 143.0 159.4L126.5 128.6H117.4V156.2Q117.4 161.8 119.9 163.2Q122.4 164.6 126.2 164.6H128.8V172.0ZM125.1 120.5Q135.0 120.5 139.1 115.4Q143.3 110.3 143.3 99.9Q143.3 89.3 138.8 84.8Q134.3 80.3 124.8 80.3H117.4V120.5Z"/>
</svg>
